<svg xmlns="http://www.w3.org/2000/svg" width="1719" height="1920" viewBox="0 0 1719 1920" version="1.1"><path d="M 1421.381 222.966 C 1410.866 223.391, 1399.182 224.069, 1395.417 224.472 C 1381.845 225.925, 1372.109 232.657, 1355.768 251.887 C 1351.275 257.174, 1345.551 263.762, 1343.049 266.527 C 1340.547 269.292, 1334.596 276.267, 1329.825 282.027 C 1325.053 287.787, 1316.308 298.350, 1310.389 305.500 C 1304.471 312.650, 1296.210 322.325, 1292.032 327 C 1287.854 331.675, 1280.891 339.775, 1276.560 345 C 1272.228 350.225, 1261.668 361.692, 1253.092 370.482 C 1244.516 379.272, 1239.505 384.672, 1241.955 382.482 C 1244.405 380.292, 1246.880 377.991, 1247.455 377.369 C 1248.030 376.746, 1249.850 375.404, 1251.500 374.386 C 1254.471 372.552, 1254.486 372.554, 1253 374.517 C 1252.175 375.608, 1244.286 385.050, 1235.468 395.500 C 1226.651 405.950, 1211.588 424.175, 1201.995 436 C 1192.403 447.825, 1179.117 464.025, 1172.471 472 C 1165.826 479.975, 1155.044 493.250, 1148.512 501.500 C 1136.925 516.135, 1118.833 538.219, 1116.333 540.780 C 1115.646 541.484, 1111.154 547.109, 1106.351 553.280 C 1090.773 573.297, 1042.678 633.525, 1008.450 675.878 C 973.967 718.548, 961.464 734.031, 942.037 758.123 C 930.783 772.080, 914.118 792.500, 905.005 803.500 C 895.891 814.500, 883.295 830.025, 877.014 838 C 870.732 845.975, 861.056 857.906, 855.512 864.513 C 849.968 871.121, 839.597 883.902, 832.466 892.917 C 825.335 901.932, 812.511 917.901, 803.970 928.404 C 795.428 938.907, 779.378 958.750, 768.303 972.500 C 757.228 986.250, 742.681 1004.025, 735.977 1012 C 729.272 1019.975, 720.160 1031, 715.727 1036.500 C 701.595 1054.034, 696.928 1059.061, 695.532 1058.252 C 694.819 1057.838, 690.432 1053.225, 685.783 1048 C 681.135 1042.775, 668.594 1029.256, 657.916 1017.958 C 637.991 996.876, 602.587 958.881, 569.901 923.500 C 559.739 912.500, 544.714 895.850, 536.512 886.500 C 528.310 877.150, 517.077 864.569, 511.550 858.542 C 489.765 834.787, 487.928 833.073, 480.079 829.195 C 472.711 825.553, 472.431 825.500, 460.552 825.500 C 443.377 825.500, 442.154 826.175, 417.898 849.037 C 407.229 859.092, 392.875 872.777, 386 879.447 C 379.125 886.117, 365.175 899.188, 355 908.493 C 344.825 917.799, 332 929.751, 326.500 935.054 C 321 940.357, 309.075 951.447, 300 959.699 C 290.925 967.951, 277.635 980.282, 270.466 987.101 C 263.298 993.921, 250.474 1005.800, 241.969 1013.500 C 215.476 1037.484, 212.636 1040.881, 210.415 1051.230 C 208.610 1059.648, 208.670 1066.523, 210.608 1073.068 C 214.307 1085.561, 216.836 1088.457, 276.181 1148.144 C 307.156 1179.298, 347.793 1220.473, 366.485 1239.644 C 385.178 1258.815, 406.778 1280.809, 414.485 1288.519 C 428.613 1302.652, 457.431 1332.450, 519 1396.590 C 537.425 1415.784, 562.856 1442.066, 575.513 1454.994 C 588.170 1467.922, 604.133 1484.350, 610.987 1491.500 C 617.841 1498.650, 628.879 1510.125, 635.516 1517 C 642.153 1523.875, 652.799 1535.350, 659.173 1542.500 C 678.362 1564.025, 687.375 1572.150, 697.621 1577.159 C 706.379 1581.441, 706.643 1581.500, 717 1581.500 C 726.405 1581.500, 728.123 1581.208, 733.468 1578.705 C 747.283 1572.237, 752.218 1566.604, 778.334 1527.500 C 786.415 1515.400, 795.083 1502.638, 797.597 1499.141 C 800.110 1495.643, 810.386 1480.568, 820.432 1465.641 C 830.478 1450.713, 842.785 1432.650, 847.781 1425.500 C 863.558 1402.923, 889.471 1365.189, 918.857 1322 C 942.351 1287.470, 947.594 1279.908, 966.003 1254 C 975.186 1241.075, 987.352 1223.750, 993.037 1215.500 C 998.722 1207.250, 1007.470 1194.875, 1012.477 1188 C 1017.483 1181.125, 1031.237 1161.192, 1043.040 1143.704 C 1054.843 1126.216, 1069 1105.282, 1074.500 1097.184 C 1080 1089.087, 1090.511 1073.562, 1097.858 1062.685 C 1105.205 1051.808, 1116.182 1035.842, 1122.251 1027.205 C 1128.321 1018.567, 1138.481 1003.850, 1144.828 994.500 C 1151.175 985.150, 1162.297 968.950, 1169.543 958.500 C 1176.788 948.050, 1185.593 935.352, 1189.108 930.282 C 1192.624 925.212, 1198.425 916.744, 1202 911.466 C 1209.912 899.783, 1226.289 876.218, 1239.158 858 C 1252.135 839.630, 1278.152 801.736, 1303.009 765 C 1314.360 748.225, 1326.626 730.225, 1330.267 725 C 1333.907 719.775, 1345.549 702.900, 1356.137 687.500 C 1366.725 672.100, 1382.426 649.375, 1391.028 637 C 1399.631 624.625, 1412.076 606.400, 1418.683 596.500 C 1430.127 579.354, 1438.979 566.560, 1458.243 539.319 C 1462.980 532.619, 1472.129 519.344, 1478.573 509.819 C 1491.573 490.601, 1499.693 479.302, 1500.850 478.819 C 1501.686 478.470, 1510.263 466.445, 1525.685 444 C 1534.358 431.377, 1563.948 389.879, 1582.728 364 C 1586.121 359.325, 1593.551 348.975, 1599.239 341 C 1604.927 333.025, 1612.775 322.210, 1616.678 316.967 C 1629.378 299.910, 1646.650 273.477, 1648.344 268.502 C 1653.600 253.077, 1645.833 233.933, 1631.693 227.460 C 1627.042 225.331, 1624.030 224.903, 1606.949 223.949 C 1583.129 222.618, 1447.724 221.900, 1421.381 222.966 M 510.672 280.662 C 509.829 281.505, 509.775 752.250, 510.618 754.446 C 510.957 755.331, 514.445 758.131, 518.368 760.667 C 522.290 763.204, 527.401 766.836, 529.724 768.739 C 534.571 772.709, 585.191 824.762, 604.411 845.542 C 611.512 853.219, 623.887 866.494, 631.911 875.043 C 665.290 910.604, 688.468 935.783, 692.248 940.588 C 694.953 944.027, 696.674 943.586, 697.464 939.250 C 698.446 933.862, 699.195 354.055, 698.272 314 L 697.500 280.500 604.422 280.245 C 553.229 280.105, 511.041 280.292, 510.672 280.662 M 1417.500 311.679 C 1416.400 311.978, 1415.119 312.885, 1414.654 313.694 C 1413.776 315.221, 1378.593 359.391, 1348.059 397.301 C 1338.402 409.291, 1325.199 425.716, 1318.719 433.801 C 1312.239 441.885, 1299.864 457.001, 1291.219 467.391 C 1282.574 477.780, 1267.850 495.797, 1258.500 507.427 C 1249.150 519.057, 1236.967 533.957, 1231.428 540.536 C 1225.888 547.116, 1215.274 560.150, 1207.840 569.500 C 1200.407 578.850, 1184.082 598.875, 1171.561 614 C 1151.831 637.836, 1101.418 700.416, 1084.963 721.500 C 1081.958 725.350, 1072.827 736.600, 1064.671 746.500 C 1056.515 756.400, 1045.073 770.800, 1039.245 778.500 C 1033.417 786.200, 1022.744 799.700, 1015.527 808.500 C 1008.310 817.300, 984.228 847.225, 962.011 875 C 939.795 902.775, 914.151 934.500, 905.024 945.500 C 895.898 956.500, 881.711 973.825, 873.498 984 C 865.284 994.175, 852.667 1009.475, 845.460 1018 C 838.252 1026.525, 827.915 1039.125, 822.489 1046 C 817.063 1052.875, 804.712 1067.950, 795.042 1079.500 C 785.373 1091.050, 772.762 1106.350, 767.017 1113.500 C 739.559 1147.679, 723.195 1165.368, 715.389 1169.311 C 709.075 1172.500, 698.488 1174.433, 691.363 1173.698 C 681.729 1172.704, 675.842 1169.109, 663.595 1156.744 C 652.852 1145.897, 618.294 1108.559, 600.923 1089.031 C 596.290 1083.823, 588.675 1075.484, 584 1070.501 C 579.325 1065.517, 570.100 1055.392, 563.500 1048 C 556.900 1040.609, 543.850 1026.244, 534.500 1016.078 C 525.150 1005.912, 512.363 991.948, 506.085 985.047 C 499.807 978.146, 488.104 965.525, 480.079 957 C 472.054 948.475, 464.590 940.354, 463.494 938.953 C 462.397 937.552, 460.903 936.042, 460.174 935.597 C 459.250 935.033, 454.246 939.304, 443.674 949.681 C 435.328 957.872, 421.750 970.608, 413.500 977.984 C 405.250 985.359, 393.550 996.184, 387.500 1002.039 C 381.450 1007.894, 368.175 1020.035, 358 1029.018 C 337.975 1046.696, 321 1062.546, 321 1063.565 C 321 1064.484, 339.790 1084.766, 371.467 1118.039 C 376.985 1123.835, 385.550 1132.837, 390.500 1138.043 C 398.976 1146.957, 443.582 1193.020, 481.486 1232 C 490.845 1241.625, 513.572 1265.250, 531.991 1284.500 C 550.409 1303.750, 573.583 1327.827, 583.489 1338.005 C 605.976 1361.108, 652.793 1409.565, 668.027 1425.503 C 701.234 1460.243, 710.057 1469.083, 710.966 1468.521 C 711.516 1468.181, 719.972 1455.888, 729.757 1441.202 C 739.542 1426.516, 753.204 1406.400, 760.116 1396.500 C 775.726 1374.142, 807.678 1327.781, 828.001 1298 C 836.446 1285.625, 847.856 1269.200, 853.356 1261.500 C 858.856 1253.800, 870.545 1236.928, 879.330 1224.007 C 888.116 1211.085, 899.425 1194.885, 904.462 1188.007 C 909.500 1181.128, 922.849 1161.775, 934.127 1145 C 945.406 1128.225, 958.032 1109.731, 962.185 1103.902 C 966.337 1098.073, 976.405 1083.448, 984.557 1071.402 C 992.710 1059.356, 1005.278 1041.175, 1012.487 1031 C 1019.696 1020.825, 1032.599 1002.150, 1041.160 989.500 C 1049.721 976.850, 1062.750 957.825, 1070.113 947.223 C 1077.476 936.621, 1087.775 921.646, 1093 913.947 C 1098.225 906.248, 1111.950 886.293, 1123.500 869.603 C 1135.050 852.913, 1151.394 829.187, 1159.820 816.879 C 1168.246 804.571, 1179.669 787.975, 1185.204 780 C 1190.739 772.025, 1201.370 756.500, 1208.830 745.500 C 1216.289 734.500, 1228.306 717.175, 1235.534 707 C 1242.762 696.825, 1253.860 680.850, 1260.197 671.500 C 1266.534 662.150, 1279.094 644.047, 1288.109 631.272 C 1297.124 618.497, 1310.125 599.848, 1317 589.830 C 1323.875 579.812, 1336.700 561.400, 1345.500 548.914 C 1354.300 536.427, 1367.265 517.726, 1374.312 507.356 C 1381.359 496.985, 1391.060 483.100, 1395.871 476.500 C 1400.682 469.900, 1411.546 454.150, 1420.013 441.500 C 1428.480 428.850, 1442.913 407.905, 1452.087 394.956 C 1469.252 370.729, 1508.001 313.353, 1507.999 312.167 C 1507.998 311.369, 1420.376 310.896, 1417.500 311.679 M 770.182 622.481 C 770.427 743.745, 770.989 843.308, 771.430 843.731 C 771.872 844.154, 773.193 843.194, 774.366 841.597 C 777.533 837.288, 790.556 820.992, 808.539 798.834 C 817.318 788.017, 826.750 776.335, 829.500 772.873 C 832.250 769.411, 839.693 760.486, 846.039 753.040 C 852.386 745.593, 865.864 729.150, 875.990 716.500 C 886.116 703.850, 897.829 689.450, 902.019 684.500 C 906.209 679.550, 916.126 667.400, 924.056 657.500 C 931.987 647.600, 940.956 636.762, 943.988 633.415 C 947.020 630.068, 951.289 624.893, 953.477 621.915 C 957.382 616.597, 957.466 616.303, 958.143 605.500 C 959.047 591.066, 959.184 470.699, 958.339 432.163 L 957.677 402 863.707 402 L 769.736 402 770.182 622.481 M 249.440 475.384 C 248.758 478.101, 249.571 897.904, 250.260 898.593 C 250.507 898.840, 256.526 893.295, 263.636 886.271 C 270.746 879.247, 285.774 864.835, 297.032 854.244 C 308.289 843.653, 327.400 825.489, 339.500 813.880 C 385.260 769.977, 388.107 767.454, 398.730 761.401 C 407.343 756.492, 414.042 754.129, 428.250 750.990 L 438 748.836 438 610.918 L 438 473 344.019 473 L 250.038 473 249.440 475.384 M 1470.281 655.250 C 1469.751 655.938, 1467.817 659.200, 1465.982 662.500 C 1462.346 669.042, 1451.322 685.661, 1424.524 725 C 1414.969 739.025, 1396.810 765.800, 1384.168 784.500 C 1371.527 803.200, 1352.477 831.100, 1341.835 846.500 C 1331.194 861.900, 1318.246 880.800, 1313.063 888.500 C 1302.326 904.451, 1290.928 920.176, 1287.102 924.316 L 1284.500 927.131 1284.735 1268.816 C 1284.957 1592.022, 1285.428 1716.265, 1286.436 1717.896 C 1286.680 1718.291, 1328.644 1718.588, 1379.690 1718.557 L 1472.500 1718.500 1473.029 1221 C 1473.550 731.572, 1473.405 654, 1471.968 654 C 1471.570 654, 1470.811 654.563, 1470.281 655.250 M 1210.271 1035.506 C 1203.951 1046.129, 1189.494 1068.017, 1173.929 1090.531 C 1164.815 1103.714, 1149.332 1126.425, 1139.522 1141 C 1129.713 1155.575, 1120.028 1169.750, 1118.001 1172.500 C 1115.974 1175.250, 1105.776 1190.100, 1095.339 1205.500 C 1084.903 1220.900, 1072.095 1239.350, 1066.877 1246.500 C 1061.659 1253.650, 1052.956 1266.025, 1047.535 1274 C 1042.115 1281.975, 1035.196 1291.787, 1032.159 1295.805 L 1026.638 1303.111 1026.812 1445.305 C 1026.907 1523.512, 1027.280 1616.819, 1027.640 1652.654 L 1028.294 1717.809 1031.397 1718.430 C 1035.430 1719.237, 1177.545 1719.149, 1198.810 1718.325 L 1215.119 1717.694 1214.810 1558.597 C 1214.639 1471.094, 1214.620 1316.702, 1214.766 1215.505 C 1214.941 1094.177, 1214.693 1031.398, 1214.037 1031.179 C 1213.490 1030.997, 1211.796 1032.944, 1210.271 1035.506 M 250.642 1234.750 C 250.301 1236.813, 250.017 1346.339, 250.011 1478.143 C 250.001 1695.750, 250.145 1717.842, 251.582 1718.393 C 253.863 1719.268, 434.275 1719.113, 435.655 1718.234 C 436.517 1717.686, 436.919 1679.799, 437.239 1569 L 437.668 1420.500 413.582 1396 C 400.335 1382.525, 377.124 1358.675, 362.001 1343 C 346.879 1327.325, 319.179 1298.975, 300.447 1280 C 281.715 1261.025, 263.222 1242.237, 259.352 1238.250 C 255.482 1234.263, 252.078 1231, 251.789 1231 C 251.499 1231, 250.983 1232.688, 250.642 1234.750 M 947.627 1418.750 C 943.926 1424.112, 936.083 1435.486, 930.199 1444.025 C 924.314 1452.564, 916.321 1463.814, 912.436 1469.025 C 903.475 1481.043, 893.771 1494.643, 877.490 1518 C 870.398 1528.175, 859.351 1543.925, 852.942 1553 C 846.533 1562.075, 836.431 1576.700, 830.494 1585.500 C 802.766 1626.601, 795.404 1635.209, 778.777 1645.965 C 773.429 1649.424, 768.796 1653.067, 768.481 1654.059 C 768.166 1655.052, 768.177 1662.082, 768.504 1669.682 C 768.832 1677.282, 768.792 1689.912, 768.415 1697.750 C 767.833 1709.872, 767.490 1712.012, 766.116 1712.079 C 764.985 1712.134, 764.894 1712.316, 765.815 1712.684 C 766.538 1712.973, 767.539 1714.288, 768.040 1715.605 C 768.769 1717.522, 769.703 1718.017, 772.725 1718.084 C 787.627 1718.415, 955.593 1717.741, 955.985 1717.348 C 956.258 1717.076, 956.519 1647.586, 956.566 1562.926 C 956.630 1447.718, 956.363 1409, 955.504 1409 C 954.873 1409, 951.328 1413.388, 947.627 1418.750 M 509.813 1608.320 C 510.025 1667.819, 510.491 1716.806, 510.849 1717.180 C 511.207 1717.554, 553.350 1717.971, 604.500 1718.105 L 697.500 1718.351 698.232 1712.425 C 699.018 1706.054, 698.115 1664.799, 697.078 1659.728 C 696.459 1656.698, 696.326 1656.639, 686.433 1654.979 C 658.931 1650.365, 655.688 1647.961, 595.500 1587.560 C 570.200 1562.170, 540.985 1532.420, 530.577 1521.449 C 520.169 1510.477, 511.153 1501.194, 510.541 1500.820 C 509.725 1500.321, 509.530 1529.033, 509.813 1608.320" stroke="none" fill="#040404" fill-rule="evenodd"/><path d="M 0 960.001 L 0 1920.001 859.750 1919.751 L 1719.500 1919.500 1719.751 959.750 L 1720.001 0 860.001 0 L 0 0 0 960.001 M 0.498 960.500 C 0.498 1488.500, 0.611 1704.350, 0.750 1440.167 C 0.889 1175.985, 0.889 743.985, 0.750 480.167 C 0.611 216.350, 0.498 432.500, 0.498 960.500 M 1421.381 222.966 C 1410.866 223.391, 1399.182 224.069, 1395.417 224.472 C 1381.845 225.925, 1372.109 232.657, 1355.768 251.887 C 1351.275 257.174, 1345.551 263.762, 1343.049 266.527 C 1340.547 269.292, 1334.596 276.267, 1329.825 282.027 C 1325.053 287.787, 1316.308 298.350, 1310.389 305.500 C 1304.471 312.650, 1296.210 322.325, 1292.032 327 C 1287.854 331.675, 1280.891 339.775, 1276.560 345 C 1272.228 350.225, 1261.668 361.692, 1253.092 370.482 C 1244.516 379.272, 1239.505 384.672, 1241.955 382.482 C 1244.405 380.292, 1246.880 377.991, 1247.455 377.369 C 1248.030 376.746, 1249.850 375.404, 1251.500 374.386 C 1254.471 372.552, 1254.486 372.554, 1253 374.517 C 1252.175 375.608, 1244.286 385.050, 1235.468 395.500 C 1226.651 405.950, 1211.588 424.175, 1201.995 436 C 1192.403 447.825, 1179.117 464.025, 1172.471 472 C 1165.826 479.975, 1155.044 493.250, 1148.512 501.500 C 1136.925 516.135, 1118.833 538.219, 1116.333 540.780 C 1115.646 541.484, 1111.154 547.109, 1106.351 553.280 C 1090.773 573.297, 1042.678 633.525, 1008.450 675.878 C 973.967 718.548, 961.464 734.031, 942.037 758.123 C 930.783 772.080, 914.118 792.500, 905.005 803.500 C 895.891 814.500, 883.295 830.025, 877.014 838 C 870.732 845.975, 861.056 857.906, 855.512 864.513 C 849.968 871.121, 839.597 883.902, 832.466 892.917 C 825.335 901.932, 812.511 917.901, 803.970 928.404 C 795.428 938.907, 779.378 958.750, 768.303 972.500 C 757.228 986.250, 742.681 1004.025, 735.977 1012 C 729.272 1019.975, 720.160 1031, 715.727 1036.500 C 701.595 1054.034, 696.928 1059.061, 695.532 1058.252 C 694.819 1057.838, 690.432 1053.225, 685.783 1048 C 681.135 1042.775, 668.594 1029.256, 657.916 1017.958 C 637.991 996.876, 602.587 958.881, 569.901 923.500 C 559.739 912.500, 544.714 895.850, 536.512 886.500 C 528.310 877.150, 517.077 864.569, 511.550 858.542 C 489.765 834.787, 487.928 833.073, 480.079 829.195 C 472.711 825.553, 472.431 825.500, 460.552 825.500 C 443.377 825.500, 442.154 826.175, 417.898 849.037 C 407.229 859.092, 392.875 872.777, 386 879.447 C 379.125 886.117, 365.175 899.188, 355 908.493 C 344.825 917.799, 332 929.751, 326.500 935.054 C 321 940.357, 309.075 951.447, 300 959.699 C 290.925 967.951, 277.635 980.282, 270.466 987.101 C 263.298 993.921, 250.474 1005.800, 241.969 1013.500 C 215.476 1037.484, 212.636 1040.881, 210.415 1051.230 C 208.610 1059.648, 208.670 1066.523, 210.608 1073.068 C 214.307 1085.561, 216.836 1088.457, 276.181 1148.144 C 307.156 1179.298, 347.793 1220.473, 366.485 1239.644 C 385.178 1258.815, 406.778 1280.809, 414.485 1288.519 C 428.613 1302.652, 457.431 1332.450, 519 1396.590 C 537.425 1415.784, 562.856 1442.066, 575.513 1454.994 C 588.170 1467.922, 604.133 1484.350, 610.987 1491.500 C 617.841 1498.650, 628.879 1510.125, 635.516 1517 C 642.153 1523.875, 652.799 1535.350, 659.173 1542.500 C 678.362 1564.025, 687.375 1572.150, 697.621 1577.159 C 706.379 1581.441, 706.643 1581.500, 717 1581.500 C 726.405 1581.500, 728.123 1581.208, 733.468 1578.705 C 747.283 1572.237, 752.218 1566.604, 778.334 1527.500 C 786.415 1515.400, 795.083 1502.638, 797.597 1499.141 C 800.110 1495.643, 810.386 1480.568, 820.432 1465.641 C 830.478 1450.713, 842.785 1432.650, 847.781 1425.500 C 863.558 1402.923, 889.471 1365.189, 918.857 1322 C 942.351 1287.470, 947.594 1279.908, 966.003 1254 C 975.186 1241.075, 987.352 1223.750, 993.037 1215.500 C 998.722 1207.250, 1007.470 1194.875, 1012.477 1188 C 1017.483 1181.125, 1031.237 1161.192, 1043.040 1143.704 C 1054.843 1126.216, 1069 1105.282, 1074.500 1097.184 C 1080 1089.087, 1090.511 1073.562, 1097.858 1062.685 C 1105.205 1051.808, 1116.182 1035.842, 1122.251 1027.205 C 1128.321 1018.567, 1138.481 1003.850, 1144.828 994.500 C 1151.175 985.150, 1162.297 968.950, 1169.543 958.500 C 1176.788 948.050, 1185.593 935.352, 1189.108 930.282 C 1192.624 925.212, 1198.425 916.744, 1202 911.466 C 1209.912 899.783, 1226.289 876.218, 1239.158 858 C 1252.135 839.630, 1278.152 801.736, 1303.009 765 C 1314.360 748.225, 1326.626 730.225, 1330.267 725 C 1333.907 719.775, 1345.549 702.900, 1356.137 687.500 C 1366.725 672.100, 1382.426 649.375, 1391.028 637 C 1399.631 624.625, 1412.076 606.400, 1418.683 596.500 C 1430.127 579.354, 1438.979 566.560, 1458.243 539.319 C 1462.980 532.619, 1472.129 519.344, 1478.573 509.819 C 1491.573 490.601, 1499.693 479.302, 1500.850 478.819 C 1501.686 478.470, 1510.263 466.445, 1525.685 444 C 1534.358 431.377, 1563.948 389.879, 1582.728 364 C 1586.121 359.325, 1593.551 348.975, 1599.239 341 C 1604.927 333.025, 1612.775 322.210, 1616.678 316.967 C 1629.378 299.910, 1646.650 273.477, 1648.344 268.502 C 1653.600 253.077, 1645.833 233.933, 1631.693 227.460 C 1627.042 225.331, 1624.030 224.903, 1606.949 223.949 C 1583.129 222.618, 1447.724 221.900, 1421.381 222.966 M 510.672 280.662 C 509.829 281.505, 509.775 752.250, 510.618 754.446 C 510.957 755.331, 514.445 758.131, 518.368 760.667 C 522.290 763.204, 527.401 766.836, 529.724 768.739 C 534.571 772.709, 585.191 824.762, 604.411 845.542 C 611.512 853.219, 623.887 866.494, 631.911 875.043 C 665.290 910.604, 688.468 935.783, 692.248 940.588 C 694.953 944.027, 696.674 943.586, 697.464 939.250 C 698.446 933.862, 699.195 354.055, 698.272 314 L 697.500 280.500 604.422 280.245 C 553.229 280.105, 511.041 280.292, 510.672 280.662 M 1417.500 311.679 C 1416.400 311.978, 1415.119 312.885, 1414.654 313.694 C 1413.776 315.221, 1378.593 359.391, 1348.059 397.301 C 1338.402 409.291, 1325.199 425.716, 1318.719 433.801 C 1312.239 441.885, 1299.864 457.001, 1291.219 467.391 C 1282.574 477.780, 1267.850 495.797, 1258.500 507.427 C 1249.150 519.057, 1236.967 533.957, 1231.428 540.536 C 1225.888 547.116, 1215.274 560.150, 1207.840 569.500 C 1200.407 578.850, 1184.082 598.875, 1171.561 614 C 1151.831 637.836, 1101.418 700.416, 1084.963 721.500 C 1081.958 725.350, 1072.827 736.600, 1064.671 746.500 C 1056.515 756.400, 1045.073 770.800, 1039.245 778.500 C 1033.417 786.200, 1022.744 799.700, 1015.527 808.500 C 1008.310 817.300, 984.228 847.225, 962.011 875 C 939.795 902.775, 914.151 934.500, 905.024 945.500 C 895.898 956.500, 881.711 973.825, 873.498 984 C 865.284 994.175, 852.667 1009.475, 845.460 1018 C 838.252 1026.525, 827.915 1039.125, 822.489 1046 C 817.063 1052.875, 804.712 1067.950, 795.042 1079.500 C 785.373 1091.050, 772.762 1106.350, 767.017 1113.500 C 739.559 1147.679, 723.195 1165.368, 715.389 1169.311 C 709.075 1172.500, 698.488 1174.433, 691.363 1173.698 C 681.729 1172.704, 675.842 1169.109, 663.595 1156.744 C 652.852 1145.897, 618.294 1108.559, 600.923 1089.031 C 596.290 1083.823, 588.675 1075.484, 584 1070.501 C 579.325 1065.517, 570.100 1055.392, 563.500 1048 C 556.900 1040.609, 543.850 1026.244, 534.500 1016.078 C 525.150 1005.912, 512.363 991.948, 506.085 985.047 C 499.807 978.146, 488.104 965.525, 480.079 957 C 472.054 948.475, 464.590 940.354, 463.494 938.953 C 462.397 937.552, 460.903 936.042, 460.174 935.597 C 459.250 935.033, 454.246 939.304, 443.674 949.681 C 435.328 957.872, 421.750 970.608, 413.500 977.984 C 405.250 985.359, 393.550 996.184, 387.500 1002.039 C 381.450 1007.894, 368.175 1020.035, 358 1029.018 C 337.975 1046.696, 321 1062.546, 321 1063.565 C 321 1064.484, 339.790 1084.766, 371.467 1118.039 C 376.985 1123.835, 385.550 1132.837, 390.500 1138.043 C 398.976 1146.957, 443.582 1193.020, 481.486 1232 C 490.845 1241.625, 513.572 1265.250, 531.991 1284.500 C 550.409 1303.750, 573.583 1327.827, 583.489 1338.005 C 605.976 1361.108, 652.793 1409.565, 668.027 1425.503 C 701.234 1460.243, 710.057 1469.083, 710.966 1468.521 C 711.516 1468.181, 719.972 1455.888, 729.757 1441.202 C 739.542 1426.516, 753.204 1406.400, 760.116 1396.500 C 775.726 1374.142, 807.678 1327.781, 828.001 1298 C 836.446 1285.625, 847.856 1269.200, 853.356 1261.500 C 858.856 1253.800, 870.545 1236.928, 879.330 1224.007 C 888.116 1211.085, 899.425 1194.885, 904.462 1188.007 C 909.500 1181.128, 922.849 1161.775, 934.127 1145 C 945.406 1128.225, 958.032 1109.731, 962.185 1103.902 C 966.337 1098.073, 976.405 1083.448, 984.557 1071.402 C 992.710 1059.356, 1005.278 1041.175, 1012.487 1031 C 1019.696 1020.825, 1032.599 1002.150, 1041.160 989.500 C 1049.721 976.850, 1062.750 957.825, 1070.113 947.223 C 1077.476 936.621, 1087.775 921.646, 1093 913.947 C 1098.225 906.248, 1111.950 886.293, 1123.500 869.603 C 1135.050 852.913, 1151.394 829.187, 1159.820 816.879 C 1168.246 804.571, 1179.669 787.975, 1185.204 780 C 1190.739 772.025, 1201.370 756.500, 1208.830 745.500 C 1216.289 734.500, 1228.306 717.175, 1235.534 707 C 1242.762 696.825, 1253.860 680.850, 1260.197 671.500 C 1266.534 662.150, 1279.094 644.047, 1288.109 631.272 C 1297.124 618.497, 1310.125 599.848, 1317 589.830 C 1323.875 579.812, 1336.700 561.400, 1345.500 548.914 C 1354.300 536.427, 1367.265 517.726, 1374.312 507.356 C 1381.359 496.985, 1391.060 483.100, 1395.871 476.500 C 1400.682 469.900, 1411.546 454.150, 1420.013 441.500 C 1428.480 428.850, 1442.913 407.905, 1452.087 394.956 C 1469.252 370.729, 1508.001 313.353, 1507.999 312.167 C 1507.998 311.369, 1420.376 310.896, 1417.500 311.679 M 770.182 622.481 C 770.427 743.745, 770.989 843.308, 771.430 843.731 C 771.872 844.154, 773.193 843.194, 774.366 841.597 C 777.533 837.288, 790.556 820.992, 808.539 798.834 C 817.318 788.017, 826.750 776.335, 829.500 772.873 C 832.250 769.411, 839.693 760.486, 846.039 753.040 C 852.386 745.593, 865.864 729.150, 875.990 716.500 C 886.116 703.850, 897.829 689.450, 902.019 684.500 C 906.209 679.550, 916.126 667.400, 924.056 657.500 C 931.987 647.600, 940.956 636.762, 943.988 633.415 C 947.020 630.068, 951.289 624.893, 953.477 621.915 C 957.382 616.597, 957.466 616.303, 958.143 605.500 C 959.047 591.066, 959.184 470.699, 958.339 432.163 L 957.677 402 863.707 402 L 769.736 402 770.182 622.481 M 249.440 475.384 C 248.758 478.101, 249.571 897.904, 250.260 898.593 C 250.507 898.840, 256.526 893.295, 263.636 886.271 C 270.746 879.247, 285.774 864.835, 297.032 854.244 C 308.289 843.653, 327.400 825.489, 339.500 813.880 C 385.260 769.977, 388.107 767.454, 398.730 761.401 C 407.343 756.492, 414.042 754.129, 428.250 750.990 L 438 748.836 438 610.918 L 438 473 344.019 473 L 250.038 473 249.440 475.384 M 1470.281 655.250 C 1469.751 655.938, 1467.817 659.200, 1465.982 662.500 C 1462.346 669.042, 1451.322 685.661, 1424.524 725 C 1414.969 739.025, 1396.810 765.800, 1384.168 784.500 C 1371.527 803.200, 1352.477 831.100, 1341.835 846.500 C 1331.194 861.900, 1318.246 880.800, 1313.063 888.500 C 1302.326 904.451, 1290.928 920.176, 1287.102 924.316 L 1284.500 927.131 1284.735 1268.816 C 1284.957 1592.022, 1285.428 1716.265, 1286.436 1717.896 C 1286.680 1718.291, 1328.644 1718.588, 1379.690 1718.557 L 1472.500 1718.500 1473.029 1221 C 1473.550 731.572, 1473.405 654, 1471.968 654 C 1471.570 654, 1470.811 654.563, 1470.281 655.250 M 1210.271 1035.506 C 1203.951 1046.129, 1189.494 1068.017, 1173.929 1090.531 C 1164.815 1103.714, 1149.332 1126.425, 1139.522 1141 C 1129.713 1155.575, 1120.028 1169.750, 1118.001 1172.500 C 1115.974 1175.250, 1105.776 1190.100, 1095.339 1205.500 C 1084.903 1220.900, 1072.095 1239.350, 1066.877 1246.500 C 1061.659 1253.650, 1052.956 1266.025, 1047.535 1274 C 1042.115 1281.975, 1035.196 1291.787, 1032.159 1295.805 L 1026.638 1303.111 1026.812 1445.305 C 1026.907 1523.512, 1027.280 1616.819, 1027.640 1652.654 L 1028.294 1717.809 1031.397 1718.430 C 1035.430 1719.237, 1177.545 1719.149, 1198.810 1718.325 L 1215.119 1717.694 1214.810 1558.597 C 1214.639 1471.094, 1214.620 1316.702, 1214.766 1215.505 C 1214.941 1094.177, 1214.693 1031.398, 1214.037 1031.179 C 1213.490 1030.997, 1211.796 1032.944, 1210.271 1035.506 M 250.642 1234.750 C 250.301 1236.813, 250.017 1346.339, 250.011 1478.143 C 250.001 1695.750, 250.145 1717.842, 251.582 1718.393 C 253.863 1719.268, 434.275 1719.113, 435.655 1718.234 C 436.517 1717.686, 436.919 1679.799, 437.239 1569 L 437.668 1420.500 413.582 1396 C 400.335 1382.525, 377.124 1358.675, 362.001 1343 C 346.879 1327.325, 319.179 1298.975, 300.447 1280 C 281.715 1261.025, 263.222 1242.237, 259.352 1238.250 C 255.482 1234.263, 252.078 1231, 251.789 1231 C 251.499 1231, 250.983 1232.688, 250.642 1234.750 M 947.627 1418.750 C 943.926 1424.112, 936.083 1435.486, 930.199 1444.025 C 924.314 1452.564, 916.321 1463.814, 912.436 1469.025 C 903.475 1481.043, 893.771 1494.643, 877.490 1518 C 870.398 1528.175, 859.351 1543.925, 852.942 1553 C 846.533 1562.075, 836.431 1576.700, 830.494 1585.500 C 802.766 1626.601, 795.404 1635.209, 778.777 1645.965 C 773.429 1649.424, 768.796 1653.067, 768.481 1654.059 C 768.166 1655.052, 768.177 1662.082, 768.504 1669.682 C 768.832 1677.282, 768.792 1689.912, 768.415 1697.750 C 767.833 1709.872, 767.490 1712.012, 766.116 1712.079 C 764.985 1712.134, 764.894 1712.316, 765.815 1712.684 C 766.538 1712.973, 767.539 1714.288, 768.040 1715.605 C 768.769 1717.522, 769.703 1718.017, 772.725 1718.084 C 787.627 1718.415, 955.593 1717.741, 955.985 1717.348 C 956.258 1717.076, 956.519 1647.586, 956.566 1562.926 C 956.630 1447.718, 956.363 1409, 955.504 1409 C 954.873 1409, 951.328 1413.388, 947.627 1418.750 M 509.813 1608.320 C 510.025 1667.819, 510.491 1716.806, 510.849 1717.180 C 511.207 1717.554, 553.350 1717.971, 604.500 1718.105 L 697.500 1718.351 698.232 1712.425 C 699.018 1706.054, 698.115 1664.799, 697.078 1659.728 C 696.459 1656.698, 696.326 1656.639, 686.433 1654.979 C 658.931 1650.365, 655.688 1647.961, 595.500 1587.560 C 570.200 1562.170, 540.985 1532.420, 530.577 1521.449 C 520.169 1510.477, 511.153 1501.194, 510.541 1500.820 C 509.725 1500.321, 509.530 1529.033, 509.813 1608.320" stroke="none" fill="#fbfbfb" fill-rule="evenodd"/></svg>